<svg xmlns="http://www.w3.org/2000/svg" xmlns:xlink="http://www.w3.org/1999/xlink" width="500" zoomAndPan="magnify" viewBox="0 0 375 74.999997" height="100" preserveAspectRatio="xMidYMid meet" version="1.0"><defs><g/><clipPath id="2d873a2011"><path d="M 33 10.398438 L 94.753906 10.398438 L 94.753906 72.433594 L 33 72.433594 Z M 33 10.398438 " clip-rule="nonzero"/></clipPath></defs><g clip-path="url(#2d873a2011)"><path fill="#9e4784" d="M 57.640625 10.679688 C 59.585938 11.074219 61.179688 12.261719 62.324219 14.0625 L 62.332031 14.070312 C 62.375 14.128906 62.398438 14.207031 62.398438 14.285156 C 62.398438 15.457031 62.398438 16.640625 62.398438 17.8125 C 62.398438 22.8125 62.398438 27.804688 62.398438 32.804688 C 62.398438 44.757812 62.398438 56.71875 62.398438 68.671875 L 62.398438 68.757812 C 62.398438 68.851562 62.363281 68.945312 62.292969 69.007812 C 61.082031 70.152344 59.714844 71.15625 58.21875 71.773438 L 58.21875 71.78125 C 58.207031 71.78125 58.199219 71.789062 58.183594 71.789062 C 57.160156 72.207031 56.09375 72.429688 55 72.421875 C 52.179688 72.386719 49.714844 70.769531 47.671875 68.707031 L 47.640625 68.679688 L 47.613281 68.679688 C 45.582031 69.125 43.484375 68.980469 41.570312 68.0625 C 40.214844 67.40625 39.015625 66.394531 38.09375 65.101562 C 37.171875 63.824219 36.546875 62.308594 36.25 60.699219 C 35.875 58.679688 36.035156 56.589844 36.652344 54.65625 L 36.691406 54.554688 L 36.589844 54.542969 C 36.476562 54.535156 36.363281 54.519531 36.25 54.511719 L 36.179688 54.5 C 36.117188 54.492188 36.058594 54.46875 36.011719 54.425781 C 35.300781 53.730469 34.660156 52.953125 34.152344 52.0625 C 33.234375 50.460938 32.839844 48.660156 33.082031 46.769531 C 33.304688 45.066406 34.035156 43.492188 35.035156 42.199219 C 35.554688 41.519531 36.15625 40.914062 36.820312 40.398438 L 36.867188 40.363281 L 36.84375 40.304688 C 36.378906 39.054688 35.988281 37.746094 35.769531 36.410156 C 35.484375 34.679688 35.5 32.820312 36.203125 31.210938 C 36.902344 29.601562 38.140625 28.539062 39.582031 27.839844 C 40.375 27.453125 41.222656 27.1875 42.074219 26.992188 L 42.144531 26.972656 L 42.128906 26.898438 C 41.875 25.484375 41.890625 24.042969 42.226562 22.660156 C 42.632812 21.003906 43.464844 19.550781 44.582031 18.402344 C 45.46875 17.496094 46.636719 16.707031 47.808594 16.390625 C 48.167969 16.296875 48.558594 16.234375 48.921875 16.261719 L 49 16.269531 L 49 16.195312 C 49.0625 15.105469 49.546875 14.128906 50.191406 13.34375 C 50.632812 12.804688 51.152344 12.347656 51.707031 11.972656 C 51.714844 11.964844 51.714844 11.964844 51.722656 11.953125 L 51.730469 11.953125 C 52.273438 11.585938 52.851562 11.285156 53.453125 11.0625 C 54.789062 10.558594 56.246094 10.394531 57.640625 10.679688 Z M 85.324219 59.742188 C 86.117188 59.742188 86.765625 60.460938 86.765625 61.359375 C 86.765625 62.25 86.117188 62.976562 85.324219 62.976562 C 84.53125 62.976562 83.882812 62.25 83.882812 61.359375 C 83.882812 60.460938 84.53125 59.742188 85.324219 59.742188 Z M 71.695312 52.796875 C 72.488281 52.796875 73.136719 53.527344 73.136719 54.414062 C 73.136719 55.304688 72.488281 56.035156 71.695312 56.035156 C 70.902344 56.035156 70.253906 55.304688 70.253906 54.414062 C 70.253906 53.527344 70.902344 52.796875 71.695312 52.796875 Z M 74.660156 62.085938 C 75.460938 62.085938 76.101562 62.808594 76.101562 63.707031 C 76.101562 64.597656 75.460938 65.316406 74.660156 65.316406 C 73.867188 65.316406 73.226562 64.597656 73.226562 63.707031 C 73.226562 62.808594 73.867188 62.085938 74.660156 62.085938 Z M 84.933594 53.34375 C 85.726562 53.34375 86.375 54.066406 86.375 54.957031 C 86.375 55.855469 85.726562 56.574219 84.933594 56.574219 C 84.140625 56.574219 83.492188 55.855469 83.492188 54.957031 C 83.492188 54.066406 84.140625 53.34375 84.933594 53.34375 Z M 84.09375 38.867188 C 84.886719 38.867188 85.535156 39.59375 85.535156 40.484375 C 85.535156 41.375 84.886719 42.101562 84.09375 42.101562 C 83.292969 42.101562 82.652344 41.375 82.652344 40.484375 C 82.652344 39.59375 83.292969 38.867188 84.09375 38.867188 Z M 75.890625 46.300781 C 76.683594 46.300781 77.324219 47.027344 77.324219 47.917969 C 77.324219 48.808594 76.683594 49.535156 75.890625 49.535156 C 75.085938 49.535156 74.445312 48.808594 74.445312 47.917969 C 74.445312 47.027344 75.085938 46.300781 75.890625 46.300781 Z M 70.960938 30.730469 C 71.753906 30.730469 72.394531 31.453125 72.394531 32.339844 C 72.394531 33.242188 71.753906 33.960938 70.960938 33.960938 C 70.160156 33.960938 69.519531 33.242188 69.519531 32.339844 C 69.519531 31.453125 70.160156 30.730469 70.960938 30.730469 Z M 77.710938 30.492188 C 78.503906 30.492188 79.152344 31.21875 79.152344 32.109375 C 79.152344 33 78.503906 33.730469 77.710938 33.730469 C 76.917969 33.730469 76.269531 33 76.269531 32.109375 C 76.269531 31.21875 76.917969 30.492188 77.710938 30.492188 Z M 80.015625 23.667969 C 80.808594 23.667969 81.449219 24.386719 81.449219 25.285156 C 81.449219 26.175781 80.808594 26.90625 80.015625 26.90625 C 79.214844 26.90625 78.574219 26.175781 78.574219 25.285156 C 78.574219 24.386719 79.214844 23.667969 80.015625 23.667969 Z M 73.152344 19.617188 C 73.945312 19.617188 74.59375 20.339844 74.59375 21.238281 C 74.59375 22.128906 73.945312 22.847656 73.152344 22.847656 C 72.359375 22.847656 71.710938 22.128906 71.710938 21.238281 C 71.710938 20.339844 72.359375 19.617188 73.152344 19.617188 Z M 78.117188 24.765625 C 78.160156 24.550781 78.238281 24.34375 78.34375 24.15625 C 77.222656 23.429688 76.109375 22.691406 74.988281 21.957031 C 74.929688 22.160156 74.835938 22.359375 74.722656 22.53125 C 75.851562 23.273438 76.988281 24.019531 78.117188 24.765625 Z M 72.90625 32.339844 C 73.859375 32.289062 74.8125 32.230469 75.765625 32.179688 C 75.765625 32.152344 75.765625 32.136719 75.765625 32.109375 C 75.765625 31.914062 75.789062 31.71875 75.835938 31.519531 C 74.828125 31.578125 73.820312 31.640625 72.816406 31.691406 C 72.875 31.90625 72.90625 32.117188 72.90625 32.339844 Z M 73.554688 61.90625 C 73.714844 61.78125 73.890625 61.6875 74.082031 61.617188 C 73.570312 59.871094 73.050781 58.132812 72.539062 56.386719 C 72.367188 56.480469 72.183594 56.546875 71.984375 56.582031 C 72.511719 58.355469 73.027344 60.128906 73.554688 61.90625 Z M 74.941406 49.835938 C 74.777344 49.722656 74.613281 49.59375 74.484375 49.433594 C 73.867188 50.460938 73.25 51.480469 72.632812 52.507812 C 72.808594 52.609375 72.960938 52.746094 73.097656 52.898438 C 73.714844 51.882812 74.332031 50.855469 74.941406 49.835938 Z M 83.53125 56.472656 C 83.394531 56.316406 83.277344 56.136719 83.195312 55.941406 C 80.808594 58.011719 78.421875 60.082031 76.035156 62.148438 C 76.171875 62.300781 76.292969 62.480469 76.382812 62.671875 C 78.765625 60.605469 81.144531 58.542969 83.53125 56.472656 Z M 84.636719 52.796875 C 84.078125 51.195312 83.523438 49.605469 82.964844 48.003906 L 82.957031 47.984375 L 82.964844 47.960938 C 83.339844 46.195312 83.707031 44.433594 84.078125 42.667969 C 83.882812 42.667969 83.691406 42.632812 83.5 42.566406 C 83.125 44.355469 82.753906 46.144531 82.378906 47.933594 C 82.363281 47.992188 82.363281 48.0625 82.386719 48.121094 C 82.953125 49.75 83.515625 51.367188 84.078125 52.996094 C 84.253906 52.898438 84.445312 52.832031 84.636719 52.796875 Z M 77.550781 49.046875 C 77.453125 49.234375 77.324219 49.40625 77.175781 49.550781 C 79.191406 51 81.210938 52.445312 83.234375 53.894531 C 83.332031 53.695312 83.445312 53.527344 83.589844 53.378906 C 81.578125 51.933594 79.566406 50.496094 77.550781 49.046875 Z M 79.703125 27.445312 C 79.503906 27.410156 79.320312 27.34375 79.144531 27.238281 C 78.785156 28.144531 78.4375 29.054688 78.085938 29.960938 C 78.277344 30.003906 78.457031 30.082031 78.632812 30.183594 C 78.984375 29.269531 79.34375 28.359375 79.703125 27.445312 Z M 83.515625 62.003906 C 83.453125 61.796875 83.425781 61.574219 83.425781 61.359375 L 76.53125 63.082031 C 76.582031 63.277344 76.613281 63.492188 76.613281 63.707031 C 76.613281 63.707031 76.613281 63.714844 76.613281 63.722656 Z M 80.632812 27.359375 C 82.476562 30.902344 84.316406 34.457031 86.160156 38 L 86.191406 38.0625 L 86.148438 38.105469 C 85.894531 38.351562 85.644531 38.609375 85.398438 38.859375 C 85.542969 39.003906 85.664062 39.175781 85.765625 39.363281 C 85.988281 39.140625 86.207031 38.917969 86.421875 38.703125 L 86.488281 38.636719 L 86.535156 38.722656 C 86.703125 39.039062 86.863281 39.355469 87.03125 39.679688 C 88.542969 43.257812 90.050781 46.828125 91.5625 50.410156 L 91.578125 50.453125 L 91.554688 50.484375 C 90.820312 51.660156 90.097656 52.832031 89.371094 54.003906 L 89.351562 54.039062 L 89.320312 54.039062 C 88.472656 54.117188 87.625 54.203125 86.789062 54.28125 C 86.847656 54.492188 86.878906 54.707031 86.878906 54.929688 C 87.511719 54.871094 88.136719 54.808594 88.761719 54.75 L 88.921875 54.734375 L 86.03125 59.382812 C 86.214844 59.46875 86.382812 59.578125 86.535156 59.714844 L 89.671875 54.664062 L 89.707031 54.65625 C 89.851562 54.648438 89.992188 54.628906 90.136719 54.613281 L 90.1875 54.613281 L 90.210938 54.664062 C 90.84375 56.546875 91.035156 58.59375 90.667969 60.574219 C 90.386719 62.078125 89.800781 63.492188 88.9375 64.691406 C 88.65625 65.09375 88.34375 65.460938 88.007812 65.804688 L 87.9375 65.871094 L 86.488281 63.039062 C 86.335938 63.175781 86.167969 63.277344 85.988281 63.355469 L 87.480469 66.28125 L 87.4375 66.328125 C 86.894531 66.78125 86.300781 67.164062 85.679688 67.464844 C 83.820312 68.355469 81.769531 68.46875 79.808594 68.003906 C 79.71875 67.988281 79.617188 68.011719 79.550781 68.082031 C 77.597656 70.101562 75.203125 71.738281 72.472656 71.773438 C 71.617188 71.78125 70.769531 71.632812 69.957031 71.351562 L 69.855469 71.316406 L 69.917969 71.222656 C 71.175781 69.347656 72.433594 67.472656 73.691406 65.597656 C 73.523438 65.488281 73.371094 65.351562 73.242188 65.195312 C 71.929688 67.140625 70.617188 69.09375 69.316406 71.035156 L 69.277344 71.085938 L 69.222656 71.0625 C 67.941406 70.488281 66.753906 69.621094 65.691406 68.628906 L 65.660156 68.605469 L 65.660156 68.570312 C 65.660156 64.261719 65.660156 59.957031 65.660156 55.65625 L 65.660156 55.582031 L 65.730469 55.570312 C 67.101562 55.425781 68.476562 55.28125 69.855469 55.136719 C 69.789062 54.929688 69.757812 54.714844 69.75 54.492188 C 68.414062 54.636719 67.078125 54.777344 65.746094 54.921875 L 65.660156 54.929688 L 65.660156 54.835938 C 65.660156 53.269531 65.660156 51.710938 65.660156 50.144531 L 65.660156 49.921875 L 65.792969 50.089844 C 65.851562 50.167969 65.9375 50.210938 66.027344 50.203125 C 68.429688 50.039062 70.824219 49.886719 73.21875 49.722656 C 73.332031 49.714844 73.433594 49.628906 73.472656 49.511719 C 73.632812 49.03125 73.785156 48.550781 73.945312 48.070312 C 73.9375 48.019531 73.9375 47.96875 73.9375 47.917969 C 73.9375 47.34375 74.132812 46.804688 74.484375 46.394531 C 74.515625 46.316406 74.539062 46.230469 74.570312 46.144531 L 74.636719 45.9375 L 74.707031 46.144531 C 74.707031 46.152344 74.707031 46.160156 74.714844 46.171875 C 74.867188 46.042969 75.042969 45.929688 75.226562 45.863281 C 75.132812 45.578125 75.042969 45.304688 74.949219 45.023438 L 74.941406 44.996094 L 74.949219 44.972656 C 75.21875 44.132812 75.492188 43.300781 75.757812 42.472656 L 75.765625 42.453125 L 75.773438 42.445312 C 76.980469 40.886719 78.183594 39.320312 79.390625 37.761719 L 79.425781 37.710938 L 79.480469 37.746094 C 79.535156 37.777344 79.585938 37.8125 79.648438 37.855469 L 79.671875 37.863281 L 79.679688 37.890625 C 79.984375 38.730469 80.296875 39.558594 80.609375 40.390625 L 80.625 40.433594 L 80.59375 40.476562 C 79.320312 42.300781 78.039062 44.132812 76.757812 45.964844 C 76.933594 46.058594 77.09375 46.1875 77.238281 46.339844 C 78.550781 44.457031 79.871094 42.574219 81.1875 40.691406 C 81.25 40.597656 81.265625 40.460938 81.21875 40.347656 C 81.007812 39.773438 80.792969 39.199219 80.578125 38.628906 L 80.496094 38.40625 L 80.6875 38.53125 C 81.226562 38.882812 81.769531 39.234375 82.316406 39.585938 C 82.394531 39.390625 82.5 39.199219 82.628906 39.039062 C 81.808594 38.507812 80.976562 37.96875 80.152344 37.429688 L 80.128906 37.410156 L 80.121094 37.386719 C 79.6875 36.230469 79.261719 35.066406 78.824219 33.910156 C 78.664062 34.027344 78.488281 34.132812 78.304688 34.199219 C 78.632812 35.089844 78.96875 35.988281 79.296875 36.878906 L 79.328125 36.957031 L 79.261719 36.992188 C 79.214844 37.007812 79.167969 37.042969 79.136719 37.085938 L 79.136719 37.09375 C 77.855469 38.753906 76.574219 40.417969 75.292969 42.078125 C 75.269531 42.101562 75.253906 42.136719 75.242188 42.179688 C 75.058594 42.738281 74.882812 43.292969 74.699219 43.851562 L 74.628906 44.054688 L 74.5625 43.851562 C 73.929688 41.941406 73.296875 40.03125 72.664062 38.121094 L 72.648438 38.070312 L 72.683594 38.035156 C 73.921875 36.597656 75.15625 35.160156 76.398438 33.730469 C 76.253906 33.574219 76.132812 33.402344 76.035156 33.214844 C 74.730469 34.722656 73.433594 36.222656 72.136719 37.726562 L 72.128906 37.738281 L 72.121094 37.738281 C 70.230469 39.097656 68.339844 40.460938 66.453125 41.820312 L 66.203125 42 L 66.347656 41.710938 C 67.597656 39.242188 68.847656 36.777344 70.09375 34.304688 C 69.917969 34.207031 69.757812 34.082031 69.621094 33.925781 C 68.347656 36.441406 67.070312 38.960938 65.796875 41.476562 L 65.660156 41.753906 L 65.660156 41.445312 C 65.660156 38.6875 65.660156 35.921875 65.660156 33.164062 L 65.660156 33.097656 L 65.730469 33.085938 C 66.828125 32.949219 67.933594 32.8125 69.03125 32.683594 C 69.015625 32.574219 69.007812 32.453125 69.007812 32.339844 C 69.007812 32.238281 69.015625 32.128906 69.03125 32.023438 C 68.308594 32.109375 67.582031 32.203125 66.859375 32.289062 L 66.554688 32.324219 L 66.8125 32.144531 C 68.492188 30.921875 70.175781 29.695312 71.855469 28.480469 L 71.855469 28.472656 C 71.929688 28.429688 71.984375 28.351562 72 28.257812 C 72.3125 26.640625 72.625 25.019531 72.9375 23.402344 C 72.738281 23.378906 72.546875 23.324219 72.371094 23.238281 C 72.066406 24.808594 71.761719 26.382812 71.464844 27.957031 L 71.457031 27.992188 L 71.433594 28.007812 C 69.542969 29.378906 67.660156 30.75 65.777344 32.117188 L 65.660156 32.203125 L 65.660156 32.050781 C 65.660156 27.503906 65.660156 22.949219 65.660156 18.402344 L 65.660156 18.28125 L 65.761719 18.324219 C 67.597656 19.105469 69.4375 19.882812 71.273438 20.664062 C 71.320312 20.449219 71.402344 20.253906 71.503906 20.0625 C 69.574219 19.242188 67.644531 18.429688 65.707031 17.605469 L 65.660156 17.589844 L 65.660156 17.527344 C 65.660156 16.492188 65.660156 15.449219 65.660156 14.414062 L 65.660156 14.386719 L 65.675781 14.359375 C 66.730469 12.742188 68.1875 11.671875 69.949219 11.320312 C 71.242188 11.054688 72.601562 11.210938 73.84375 11.679688 C 74.316406 11.859375 74.78125 12.082031 75.21875 12.355469 L 75.269531 12.390625 L 75.246094 12.453125 C 74.621094 14.652344 73.988281 16.851562 73.355469 19.0625 C 73.554688 19.078125 73.746094 19.136719 73.921875 19.226562 C 74.46875 17.296875 75.019531 15.378906 75.574219 13.453125 L 75.636719 13.230469 L 75.714844 13.453125 C 76.820312 16.765625 77.925781 20.082031 79.023438 23.394531 C 79.191406 23.28125 79.375 23.207031 79.566406 23.15625 C 78.480469 19.902344 77.398438 16.648438 76.308594 13.402344 L 76.210938 13.09375 L 76.429688 13.308594 C 76.574219 13.460938 76.726562 13.617188 76.855469 13.789062 C 77.496094 14.558594 77.972656 15.558594 77.894531 16.640625 C 77.886719 16.816406 78.007812 16.972656 78.160156 16.988281 C 78.207031 16.988281 78.246094 16.980469 78.28125 16.972656 L 78.28125 16.964844 L 78.289062 16.964844 C 78.679688 16.851562 79.144531 16.921875 79.535156 17.023438 C 80.570312 17.296875 81.59375 17.984375 82.394531 18.769531 L 82.433594 18.804688 L 82.410156 18.863281 C 82.402344 18.882812 82.394531 18.898438 82.386719 18.925781 C 81.828125 20.363281 81.265625 21.800781 80.699219 23.238281 C 80.890625 23.324219 81.074219 23.4375 81.226562 23.582031 C 81.769531 22.1875 82.300781 20.792969 82.835938 19.402344 L 82.882812 19.285156 L 82.957031 19.378906 C 83.773438 20.355469 84.378906 21.527344 84.699219 22.828125 C 85.039062 24.25 85.011719 25.722656 84.703125 27.152344 C 84.667969 27.324219 84.765625 27.503906 84.925781 27.546875 C 84.933594 27.546875 84.949219 27.554688 84.957031 27.554688 L 84.964844 27.554688 C 85.886719 27.746094 86.808594 28.027344 87.671875 28.445312 C 88.976562 29.070312 90.121094 30.03125 90.761719 31.496094 C 90.972656 31.992188 91.125 32.523438 91.210938 33.070312 L 91.226562 33.164062 L 91.140625 33.164062 C 91.074219 33.171875 91.011719 33.199219 90.960938 33.25 C 89.539062 34.679688 88.121094 36.109375 86.695312 37.546875 L 86.632812 37.617188 L 86.589844 37.53125 C 84.773438 34.039062 82.957031 30.550781 81.152344 27.058594 C 80.992188 27.1875 80.816406 27.289062 80.632812 27.359375 Z M 90.308594 53.636719 C 90.921875 52.644531 91.539062 51.660156 92.148438 50.664062 C 92.210938 50.5625 92.21875 50.433594 92.164062 50.324219 C 90.632812 46.675781 89.089844 43.035156 87.550781 39.390625 C 87.550781 39.378906 87.542969 39.371094 87.535156 39.355469 C 87.34375 38.984375 87.152344 38.617188 86.960938 38.25 L 86.933594 38.191406 L 86.976562 38.148438 C 88.375 36.734375 89.777344 35.320312 91.171875 33.910156 L 91.285156 33.789062 L 91.292969 33.960938 C 91.332031 34.738281 91.265625 35.527344 91.140625 36.289062 C 90.914062 37.683594 90.488281 39.0625 89.984375 40.355469 C 89.929688 40.511719 89.984375 40.691406 90.105469 40.769531 L 90.113281 40.777344 C 90.8125 41.28125 91.460938 41.90625 92.011719 42.617188 C 92.933594 43.816406 93.613281 45.28125 93.820312 46.863281 C 94.046875 48.59375 93.675781 50.246094 92.84375 51.710938 C 92.386719 52.507812 91.8125 53.21875 91.179688 53.84375 L 91.164062 53.859375 L 91.132812 53.867188 C 90.960938 53.886719 90.785156 53.902344 90.609375 53.910156 L 90.570312 53.917969 L 90.546875 53.886719 C 90.5 53.816406 90.433594 53.773438 90.355469 53.765625 L 90.242188 53.75 Z M 65.699219 43.140625 C 67.828125 41.605469 69.960938 40.074219 72.089844 38.542969 L 72.167969 38.480469 L 72.199219 38.574219 C 72.90625 40.707031 73.609375 42.839844 74.316406 44.972656 L 74.324219 44.996094 L 74.316406 45.023438 C 73.882812 46.359375 73.449219 47.703125 73.011719 49.039062 L 73 49.089844 L 72.945312 49.089844 C 70.632812 49.246094 68.316406 49.398438 65.996094 49.550781 C 65.914062 49.5625 65.84375 49.605469 65.792969 49.671875 L 65.660156 49.84375 L 65.660156 49.621094 C 65.660156 47.480469 65.660156 45.347656 65.660156 43.207031 L 65.660156 43.164062 Z M 91.234375 54.511719 L 91.300781 54.5 C 91.363281 54.492188 91.421875 54.46875 91.46875 54.425781 C 92.179688 53.730469 92.820312 52.953125 93.332031 52.0625 C 94.246094 50.460938 94.640625 48.660156 94.398438 46.769531 C 94.175781 45.066406 93.445312 43.492188 92.445312 42.199219 C 91.925781 41.519531 91.324219 40.914062 90.660156 40.398438 L 90.617188 40.363281 L 90.636719 40.304688 C 91.105469 39.054688 91.492188 37.746094 91.714844 36.410156 C 91.996094 34.679688 91.980469 32.820312 91.277344 31.210938 C 90.578125 29.601562 89.34375 28.539062 87.902344 27.839844 C 87.105469 27.453125 86.261719 27.1875 85.40625 26.992188 L 85.339844 26.972656 L 85.355469 26.898438 C 85.605469 25.484375 85.589844 24.042969 85.253906 22.660156 C 84.851562 21.003906 84.019531 19.550781 82.898438 18.402344 C 82.011719 17.496094 80.847656 16.707031 79.671875 16.390625 C 79.3125 16.296875 78.921875 16.234375 78.558594 16.261719 L 78.480469 16.269531 L 78.480469 16.195312 C 78.421875 15.105469 77.933594 14.128906 77.292969 13.34375 C 76.851562 12.804688 76.332031 12.347656 75.773438 11.972656 C 75.765625 11.964844 75.765625 11.964844 75.757812 11.953125 L 75.75 11.953125 C 75.210938 11.585938 74.628906 11.285156 74.027344 11.0625 C 72.691406 10.558594 71.238281 10.394531 69.839844 10.679688 C 67.894531 11.074219 66.300781 12.261719 65.15625 14.0625 L 65.148438 14.070312 C 65.105469 14.128906 65.082031 14.207031 65.082031 14.285156 C 65.082031 15.457031 65.082031 16.640625 65.082031 17.8125 C 65.082031 22.8125 65.082031 27.804688 65.082031 32.804688 C 65.082031 44.757812 65.082031 56.71875 65.082031 68.671875 L 65.082031 68.757812 C 65.082031 68.851562 65.121094 68.945312 65.1875 69.007812 C 66.402344 70.152344 67.765625 71.15625 69.261719 71.773438 L 69.261719 71.78125 C 69.277344 71.78125 69.285156 71.789062 69.300781 71.789062 C 70.320312 72.207031 71.386719 72.429688 72.480469 72.421875 C 75.300781 72.386719 77.765625 70.769531 79.808594 68.707031 L 79.839844 68.679688 L 79.871094 68.679688 C 81.898438 69.125 83.996094 68.980469 85.910156 68.0625 C 87.269531 67.40625 88.464844 66.394531 89.386719 65.101562 C 90.308594 63.824219 90.9375 62.308594 91.234375 60.699219 C 91.605469 58.679688 91.445312 56.589844 90.828125 54.65625 L 90.789062 54.554688 L 90.890625 54.542969 C 91.003906 54.535156 91.121094 54.519531 91.234375 54.511719 " fill-opacity="1" fill-rule="evenodd"/></g><g fill="#9e4784" fill-opacity="1"><g transform="translate(95.999021, 56.703822)"><g><path d="M 22.53125 -21.78125 C 25.195312 -20.84375 26.53125 -18.671875 26.53125 -15.265625 L 26.53125 -8.125 C 26.53125 -2.707031 23.984375 0 18.890625 0 L 3.078125 0 L 3.078125 -39.828125 L 18.40625 -39.828125 C 23.488281 -39.828125 26.03125 -37.117188 26.03125 -31.703125 L 26.03125 -28.0625 C 26.03125 -24.78125 24.863281 -22.6875 22.53125 -21.78125 Z M 16.25 -33.96875 L 11.6875 -33.96875 L 11.6875 -23.328125 L 16.25 -23.328125 C 16.570312 -23.328125 16.847656 -23.445312 17.078125 -23.6875 C 17.304688 -23.9375 17.421875 -24.226562 17.421875 -24.5625 L 17.421875 -32.75 C 17.421875 -33.070312 17.304688 -33.351562 17.078125 -33.59375 C 16.847656 -33.84375 16.570312 -33.96875 16.25 -33.96875 Z M 17.90625 -7.140625 L 17.90625 -16.0625 C 17.90625 -16.394531 17.789062 -16.679688 17.5625 -16.921875 C 17.34375 -17.171875 17.066406 -17.296875 16.734375 -17.296875 L 11.6875 -17.296875 L 11.6875 -5.90625 L 16.734375 -5.90625 C 17.066406 -5.90625 17.34375 -6.023438 17.5625 -6.265625 C 17.789062 -6.515625 17.90625 -6.804688 17.90625 -7.140625 Z M 17.90625 -7.140625 "/></g></g></g><g fill="#9e4784" fill-opacity="1"><g transform="translate(133.357254, 56.703822)"><g><path d="M 15.578125 -30.65625 L 17.171875 -30.65625 L 17.171875 -22.65625 L 13.109375 -22.65625 C 11.710938 -22.65625 11.015625 -21.9375 11.015625 -20.5 L 11.015625 0 L 2.765625 0 L 2.765625 -30.03125 L 10.28125 -30.03125 L 10.28125 -27.140625 C 11.46875 -29.484375 13.234375 -30.65625 15.578125 -30.65625 Z M 15.578125 -30.65625 "/></g></g></g><g fill="#4f1964" fill-opacity="1"><g transform="translate(159.440468, 56.703822)"><g><path d="M 18.890625 -40.4375 C 23.984375 -40.4375 26.53125 -37.726562 26.53125 -32.3125 L 26.53125 0 L 17.90625 0 L 17.90625 -13.359375 L 11.6875 -13.359375 L 11.6875 0 L 3.078125 0 L 3.078125 -32.3125 C 3.078125 -37.726562 5.617188 -40.4375 10.703125 -40.4375 Z M 11.6875 -20 L 17.90625 -20 L 17.90625 -33.359375 C 17.90625 -33.679688 17.789062 -33.96875 17.5625 -34.21875 C 17.34375 -34.46875 17.066406 -34.59375 16.734375 -34.59375 L 12.859375 -34.59375 C 12.535156 -34.59375 12.257812 -34.46875 12.03125 -34.21875 C 11.800781 -33.96875 11.6875 -33.679688 11.6875 -33.359375 Z M 11.6875 -20 "/></g></g></g><g fill="#4f1964" fill-opacity="1"><g transform="translate(197.291032, 56.703822)"><g><path d="M 11.6875 -39.828125 L 11.6875 0 L 3.078125 0 L 3.078125 -39.828125 Z M 11.6875 -39.828125 "/></g></g></g><g fill="#9e4784" fill-opacity="1"><g transform="translate(220.297217, 56.703822)"><g><path d="M 11.015625 0 L 2.765625 0 L 2.765625 -30.03125 L 10.28125 -30.03125 L 10.28125 -28.5 C 11.550781 -29.9375 13.476562 -30.65625 16.0625 -30.65625 L 17.359375 -30.65625 C 22.441406 -30.65625 24.984375 -27.945312 24.984375 -22.53125 L 24.984375 0 L 16.734375 0 L 16.734375 -23.515625 C 16.734375 -23.835938 16.617188 -24.117188 16.390625 -24.359375 C 16.171875 -24.609375 15.898438 -24.734375 15.578125 -24.734375 L 12.1875 -24.734375 C 11.851562 -24.734375 11.570312 -24.609375 11.34375 -24.359375 C 11.125 -24.117188 11.015625 -23.835938 11.015625 -23.515625 Z M 11.015625 0 "/></g></g></g><g fill="#4f1964" fill-opacity="1"><g transform="translate(256.108227, 56.703822)"><g><path d="M 11.6875 -39.828125 L 11.6875 0 L 3.078125 0 L 3.078125 -39.828125 Z M 11.6875 -39.828125 "/></g></g></g><g fill="#4f1964" fill-opacity="1"><g transform="translate(279.127273, 56.703822)"><g><path d="M 24.984375 -22.53125 L 24.984375 -7.515625 C 24.984375 -2.097656 22.441406 0.609375 17.359375 0.609375 L 10.40625 0.609375 C 5.3125 0.609375 2.765625 -2.097656 2.765625 -7.515625 L 2.765625 -22.53125 C 2.765625 -27.945312 5.3125 -30.65625 10.40625 -30.65625 L 17.359375 -30.65625 C 22.441406 -30.65625 24.984375 -27.945312 24.984375 -22.53125 Z M 16.734375 -5.78125 L 16.734375 -24.3125 C 16.734375 -24.632812 16.617188 -24.921875 16.390625 -25.171875 C 16.171875 -25.421875 15.898438 -25.546875 15.578125 -25.546875 L 12.1875 -25.546875 C 11.851562 -25.546875 11.570312 -25.421875 11.34375 -25.171875 C 11.125 -24.921875 11.015625 -24.632812 11.015625 -24.3125 L 11.015625 -5.78125 C 11.015625 -5.457031 11.125 -5.171875 11.34375 -4.921875 C 11.570312 -4.671875 11.851562 -4.546875 12.1875 -4.546875 L 15.578125 -4.546875 C 15.898438 -4.546875 16.171875 -4.671875 16.390625 -4.921875 C 16.617188 -5.171875 16.734375 -5.457031 16.734375 -5.78125 Z M 16.734375 -5.78125 "/></g></g></g><g fill="#4f1964" fill-opacity="1"><g transform="translate(314.946967, 56.703822)"><g><path d="M 0.796875 -32.5 L 0.796875 -39.828125 L 22.34375 -39.828125 L 22.34375 -32.5 L 15.875 -32.5 L 15.875 0 L 7.265625 0 L 7.265625 -32.5 Z M 0.796875 -32.5 "/></g></g></g><g fill="#4f1964" fill-opacity="1"><g transform="translate(100.10298, 72.730064)"><g><path d="M 4.164062 0 L 4.738281 0 L 2.746094 -5.089844 L 2.171875 -5.089844 L 0.179688 0 L 0.765625 0 L 1.320312 -1.425781 L 3.605469 -1.425781 Z M 2.457031 -4.371094 L 3.40625 -1.949219 L 1.519531 -1.949219 Z M 2.457031 -4.371094 "/></g></g></g><g fill="#4f1964" fill-opacity="1"><g transform="translate(106.511391, 72.730064)"><g><path d="M 0.609375 0 L 1.160156 0 L 1.160156 -2.128906 L 2.496094 -2.128906 L 3.492188 0 L 4.101562 0 L 3.046875 -2.242188 C 3.527344 -2.367188 4.042969 -2.847656 4.042969 -3.613281 C 4.042969 -4.445312 3.453125 -5.089844 2.335938 -5.089844 L 0.609375 -5.089844 Z M 1.160156 -2.652344 L 1.160156 -4.558594 L 2.328125 -4.558594 C 3.03125 -4.558594 3.476562 -4.214844 3.476562 -3.613281 C 3.476562 -3.011719 3.011719 -2.652344 2.328125 -2.652344 Z M 1.160156 -2.652344 "/></g></g></g><g fill="#4f1964" fill-opacity="1"><g transform="translate(112.554223, 72.730064)"><g><path d="M 1.828125 0 L 2.386719 0 L 2.386719 -4.558594 L 3.886719 -4.558594 L 3.886719 -5.089844 L 0.335938 -5.089844 L 0.335938 -4.558594 L 1.828125 -4.558594 Z M 1.828125 0 "/></g></g></g><g fill="#4f1964" fill-opacity="1"><g transform="translate(118.267316, 72.730064)"><g><path d="M 0.617188 0 L 1.167969 0 L 1.167969 -5.089844 L 0.617188 -5.089844 Z M 0.617188 0 "/></g></g></g><g fill="#4f1964" fill-opacity="1"><g transform="translate(121.536036, 72.730064)"><g><path d="M 0.59375 0 L 1.148438 0 L 1.148438 -2.308594 L 3.398438 -2.308594 L 3.398438 -2.832031 L 1.148438 -2.832031 L 1.148438 -4.558594 L 3.886719 -4.558594 L 3.886719 -5.089844 L 0.59375 -5.089844 Z M 0.59375 0 "/></g></g></g><g fill="#4f1964" fill-opacity="1"><g transform="translate(127.198954, 72.730064)"><g><path d="M 0.617188 0 L 1.167969 0 L 1.167969 -5.089844 L 0.617188 -5.089844 Z M 0.617188 0 "/></g></g></g><g fill="#4f1964" fill-opacity="1"><g transform="translate(130.467674, 72.730064)"><g><path d="M 2.660156 0.0703125 C 3.664062 0.0703125 4.625 -0.523438 4.78125 -1.648438 L 4.207031 -1.648438 C 4.058594 -0.894531 3.382812 -0.457031 2.660156 -0.457031 C 1.886719 -0.457031 0.882812 -1.011719 0.882812 -2.507812 C 0.882812 -4.136719 1.878906 -4.625 2.660156 -4.625 C 3.363281 -4.625 4.035156 -4.195312 4.195312 -3.492188 L 4.765625 -3.492188 C 4.609375 -4.523438 3.664062 -5.160156 2.660156 -5.160156 C 1.597656 -5.160156 0.324219 -4.464844 0.324219 -2.507812 C 0.324219 -0.660156 1.648438 0.0703125 2.660156 0.0703125 Z M 2.660156 0.0703125 "/></g></g></g><g fill="#4f1964" fill-opacity="1"><g transform="translate(137.062466, 72.730064)"><g><path d="M 0.617188 0 L 1.167969 0 L 1.167969 -5.089844 L 0.617188 -5.089844 Z M 0.617188 0 "/></g></g></g><g fill="#4f1964" fill-opacity="1"><g transform="translate(140.331187, 72.730064)"><g><path d="M 4.164062 0 L 4.738281 0 L 2.746094 -5.089844 L 2.171875 -5.089844 L 0.179688 0 L 0.765625 0 L 1.320312 -1.425781 L 3.605469 -1.425781 Z M 2.457031 -4.371094 L 3.40625 -1.949219 L 1.519531 -1.949219 Z M 2.457031 -4.371094 "/></g></g></g><g fill="#4f1964" fill-opacity="1"><g transform="translate(146.739599, 72.730064)"><g><path d="M 0.617188 0 L 3.691406 0 L 3.691406 -0.53125 L 1.167969 -0.53125 L 1.167969 -5.089844 L 0.617188 -5.089844 Z M 0.617188 0 "/></g></g></g><g fill="#4f1964" fill-opacity="1"><g transform="translate(152.244811, 72.730064)"><g/></g></g><g fill="#4f1964" fill-opacity="1"><g transform="translate(155.456181, 72.730064)"><g><path d="M 0.617188 0 L 1.167969 0 L 1.167969 -5.089844 L 0.617188 -5.089844 Z M 0.617188 0 "/></g></g></g><g fill="#4f1964" fill-opacity="1"><g transform="translate(158.724902, 72.730064)"><g><path d="M 0.609375 0 L 1.160156 0 L 1.160156 -4.179688 L 4.085938 0 L 4.730469 0 L 4.730469 -5.089844 L 4.179688 -5.089844 L 4.179688 -0.894531 L 1.226562 -5.089844 L 0.609375 -5.089844 Z M 0.609375 0 "/></g></g></g><g fill="#4f1964" fill-opacity="1"><g transform="translate(165.556243, 72.730064)"><g><path d="M 1.828125 0 L 2.386719 0 L 2.386719 -4.558594 L 3.886719 -4.558594 L 3.886719 -5.089844 L 0.335938 -5.089844 L 0.335938 -4.558594 L 1.828125 -4.558594 Z M 1.828125 0 "/></g></g></g><g fill="#4f1964" fill-opacity="1"><g transform="translate(171.269337, 72.730064)"><g><path d="M 0.617188 0 L 3.929688 0 L 3.929688 -0.523438 L 1.167969 -0.523438 L 1.167969 -2.316406 L 3.324219 -2.316406 L 3.324219 -2.847656 L 1.167969 -2.847656 L 1.167969 -4.566406 L 3.863281 -4.566406 L 3.863281 -5.089844 L 0.617188 -5.089844 Z M 0.617188 0 "/></g></g></g><g fill="#4f1964" fill-opacity="1"><g transform="translate(177.147297, 72.730064)"><g><path d="M 0.617188 0 L 3.691406 0 L 3.691406 -0.53125 L 1.167969 -0.53125 L 1.167969 -5.089844 L 0.617188 -5.089844 Z M 0.617188 0 "/></g></g></g><g fill="#4f1964" fill-opacity="1"><g transform="translate(182.652509, 72.730064)"><g><path d="M 0.617188 0 L 3.691406 0 L 3.691406 -0.53125 L 1.167969 -0.53125 L 1.167969 -5.089844 L 0.617188 -5.089844 Z M 0.617188 0 "/></g></g></g><g fill="#4f1964" fill-opacity="1"><g transform="translate(188.157722, 72.730064)"><g><path d="M 0.617188 0 L 1.167969 0 L 1.167969 -5.089844 L 0.617188 -5.089844 Z M 0.617188 0 "/></g></g></g><g fill="#4f1964" fill-opacity="1"><g transform="translate(191.426442, 72.730064)"><g><path d="M 2.59375 0.078125 C 3.621094 0.078125 4.773438 -0.457031 4.773438 -2.136719 L 4.773438 -2.609375 L 2.753906 -2.609375 L 2.753906 -2.09375 L 4.230469 -2.09375 C 4.230469 -0.851562 3.382812 -0.453125 2.59375 -0.453125 C 1.8125 -0.453125 0.882812 -0.9375 0.882812 -2.566406 C 0.882812 -4.078125 1.820312 -4.628906 2.601562 -4.628906 C 3.367188 -4.628906 3.941406 -4.105469 4.09375 -3.585938 L 4.710938 -3.585938 C 4.507812 -4.609375 3.585938 -5.160156 2.601562 -5.160156 C 1.542969 -5.160156 0.324219 -4.410156 0.324219 -2.574219 C 0.324219 -0.542969 1.578125 0.078125 2.59375 0.078125 Z M 2.59375 0.078125 "/></g></g></g><g fill="#4f1964" fill-opacity="1"><g transform="translate(198.035563, 72.730064)"><g><path d="M 0.617188 0 L 3.929688 0 L 3.929688 -0.523438 L 1.167969 -0.523438 L 1.167969 -2.316406 L 3.324219 -2.316406 L 3.324219 -2.847656 L 1.167969 -2.847656 L 1.167969 -4.566406 L 3.863281 -4.566406 L 3.863281 -5.089844 L 0.617188 -5.089844 Z M 0.617188 0 "/></g></g></g><g fill="#4f1964" fill-opacity="1"><g transform="translate(203.913527, 72.730064)"><g><path d="M 0.609375 0 L 1.160156 0 L 1.160156 -4.179688 L 4.085938 0 L 4.730469 0 L 4.730469 -5.089844 L 4.179688 -5.089844 L 4.179688 -0.894531 L 1.226562 -5.089844 L 0.609375 -5.089844 Z M 0.609375 0 "/></g></g></g><g fill="#4f1964" fill-opacity="1"><g transform="translate(210.744868, 72.730064)"><g><path d="M 2.660156 0.0703125 C 3.664062 0.0703125 4.625 -0.523438 4.78125 -1.648438 L 4.207031 -1.648438 C 4.058594 -0.894531 3.382812 -0.457031 2.660156 -0.457031 C 1.886719 -0.457031 0.882812 -1.011719 0.882812 -2.507812 C 0.882812 -4.136719 1.878906 -4.625 2.660156 -4.625 C 3.363281 -4.625 4.035156 -4.195312 4.195312 -3.492188 L 4.765625 -3.492188 C 4.609375 -4.523438 3.664062 -5.160156 2.660156 -5.160156 C 1.597656 -5.160156 0.324219 -4.464844 0.324219 -2.507812 C 0.324219 -0.660156 1.648438 0.0703125 2.660156 0.0703125 Z M 2.660156 0.0703125 "/></g></g></g><g fill="#4f1964" fill-opacity="1"><g transform="translate(217.33966, 72.730064)"><g><path d="M 0.617188 0 L 3.929688 0 L 3.929688 -0.523438 L 1.167969 -0.523438 L 1.167969 -2.316406 L 3.324219 -2.316406 L 3.324219 -2.847656 L 1.167969 -2.847656 L 1.167969 -4.566406 L 3.863281 -4.566406 L 3.863281 -5.089844 L 0.617188 -5.089844 Z M 0.617188 0 "/></g></g></g><g fill="#4f1964" fill-opacity="1"><g transform="translate(223.217624, 72.730064)"><g/></g></g><g fill="#4f1964" fill-opacity="1"><g transform="translate(226.428994, 72.730064)"><g><path d="M 1.835938 0.0351562 C 2.480469 0.0273438 2.925781 -0.300781 3.296875 -0.703125 L 3.921875 0.0078125 L 4.585938 0.0078125 L 3.65625 -1.105469 L 4.617188 -2.164062 L 3.929688 -2.164062 L 3.304688 -1.476562 C 3.304688 -1.476562 2.171875 -2.710938 2.179688 -2.710938 C 2.738281 -2.945312 3.246094 -3.363281 3.246094 -3.957031 C 3.246094 -4.617188 2.808594 -5.152344 2.0625 -5.152344 C 1.320312 -5.152344 0.847656 -4.617188 0.847656 -4 C 0.847656 -3.535156 1.191406 -3.109375 1.339844 -2.917969 C 0.667969 -2.582031 0.300781 -2.050781 0.300781 -1.441406 C 0.300781 -0.601562 0.925781 0.0429688 1.835938 0.0351562 Z M 1.847656 -3.082031 C 1.691406 -3.277344 1.375 -3.5625 1.375 -3.984375 C 1.375 -4.410156 1.699219 -4.652344 2.042969 -4.660156 C 2.480469 -4.667969 2.714844 -4.351562 2.714844 -3.949219 C 2.714844 -3.589844 2.378906 -3.28125 1.847656 -3.082031 Z M 1.828125 -0.488281 C 1.226562 -0.488281 0.851562 -0.917969 0.851562 -1.46875 C 0.851562 -1.886719 1.105469 -2.273438 1.675781 -2.488281 C 1.683594 -2.488281 2.9375 -1.105469 2.933594 -1.105469 C 2.671875 -0.78125 2.28125 -0.488281 1.828125 -0.488281 Z M 1.828125 -0.488281 "/></g></g></g><g fill="#4f1964" fill-opacity="1"><g transform="translate(232.794402, 72.730064)"><g/></g></g><g fill="#4f1964" fill-opacity="1"><g transform="translate(236.005772, 72.730064)"><g><path d="M 0.617188 0 L 1.167969 0 L 1.167969 -5.089844 L 0.617188 -5.089844 Z M 0.617188 0 "/></g></g></g><g fill="#4f1964" fill-opacity="1"><g transform="translate(239.274493, 72.730064)"><g><path d="M 0.609375 0 L 1.160156 0 L 1.160156 -4.179688 L 4.085938 0 L 4.730469 0 L 4.730469 -5.089844 L 4.179688 -5.089844 L 4.179688 -0.894531 L 1.226562 -5.089844 L 0.609375 -5.089844 Z M 0.609375 0 "/></g></g></g><g fill="#4f1964" fill-opacity="1"><g transform="translate(246.105833, 72.730064)"><g><path d="M 1.828125 0 L 2.386719 0 L 2.386719 -4.558594 L 3.886719 -4.558594 L 3.886719 -5.089844 L 0.335938 -5.089844 L 0.335938 -4.558594 L 1.828125 -4.558594 Z M 1.828125 0 "/></g></g></g><g fill="#4f1964" fill-opacity="1"><g transform="translate(251.818928, 72.730064)"><g><path d="M 0.617188 0 L 3.929688 0 L 3.929688 -0.523438 L 1.167969 -0.523438 L 1.167969 -2.316406 L 3.324219 -2.316406 L 3.324219 -2.847656 L 1.167969 -2.847656 L 1.167969 -4.566406 L 3.863281 -4.566406 L 3.863281 -5.089844 L 0.617188 -5.089844 Z M 0.617188 0 "/></g></g></g><g fill="#4f1964" fill-opacity="1"><g transform="translate(257.696892, 72.730064)"><g><path d="M 0.609375 0 L 1.160156 0 L 1.160156 -2.128906 L 2.496094 -2.128906 L 3.492188 0 L 4.101562 0 L 3.046875 -2.242188 C 3.527344 -2.367188 4.042969 -2.847656 4.042969 -3.613281 C 4.042969 -4.445312 3.453125 -5.089844 2.335938 -5.089844 L 0.609375 -5.089844 Z M 1.160156 -2.652344 L 1.160156 -4.558594 L 2.328125 -4.558594 C 3.03125 -4.558594 3.476562 -4.214844 3.476562 -3.613281 C 3.476562 -3.011719 3.011719 -2.652344 2.328125 -2.652344 Z M 1.160156 -2.652344 "/></g></g></g><g fill="#4f1964" fill-opacity="1"><g transform="translate(263.739726, 72.730064)"><g><path d="M 0.609375 0 L 1.160156 0 L 1.160156 -4.179688 L 4.085938 0 L 4.730469 0 L 4.730469 -5.089844 L 4.179688 -5.089844 L 4.179688 -0.894531 L 1.226562 -5.089844 L 0.609375 -5.089844 Z M 0.609375 0 "/></g></g></g><g fill="#4f1964" fill-opacity="1"><g transform="translate(270.571066, 72.730064)"><g><path d="M 0.617188 0 L 3.929688 0 L 3.929688 -0.523438 L 1.167969 -0.523438 L 1.167969 -2.316406 L 3.324219 -2.316406 L 3.324219 -2.847656 L 1.167969 -2.847656 L 1.167969 -4.566406 L 3.863281 -4.566406 L 3.863281 -5.089844 L 0.617188 -5.089844 Z M 0.617188 0 "/></g></g></g><g fill="#4f1964" fill-opacity="1"><g transform="translate(276.44903, 72.730064)"><g><path d="M 1.828125 0 L 2.386719 0 L 2.386719 -4.558594 L 3.886719 -4.558594 L 3.886719 -5.089844 L 0.335938 -5.089844 L 0.335938 -4.558594 L 1.828125 -4.558594 Z M 1.828125 0 "/></g></g></g><g fill="#4f1964" fill-opacity="1"><g transform="translate(282.162125, 72.730064)"><g/></g></g><g fill="#4f1964" fill-opacity="1"><g transform="translate(285.373486, 72.730064)"><g><path d="M 2.644531 0.0585938 C 3.734375 0.0585938 4.96875 -0.761719 4.96875 -2.582031 C 4.96875 -4.328125 3.742188 -5.152344 2.644531 -5.152344 C 1.542969 -5.152344 0.324219 -4.34375 0.324219 -2.582031 C 0.324219 -0.695312 1.589844 0.0585938 2.644531 0.0585938 Z M 2.644531 -0.472656 C 1.84375 -0.472656 0.875 -1.054688 0.875 -2.582031 C 0.875 -4.019531 1.828125 -4.625 2.644531 -4.625 C 3.441406 -4.625 4.421875 -4.019531 4.421875 -2.582031 C 4.421875 -1.097656 3.449219 -0.472656 2.644531 -0.472656 Z M 2.644531 -0.472656 "/></g></g></g><g fill="#4f1964" fill-opacity="1"><g transform="translate(292.15464, 72.730064)"><g><path d="M 0.59375 0 L 1.148438 0 L 1.148438 -2.308594 L 3.398438 -2.308594 L 3.398438 -2.832031 L 1.148438 -2.832031 L 1.148438 -4.558594 L 3.886719 -4.558594 L 3.886719 -5.089844 L 0.59375 -5.089844 Z M 0.59375 0 "/></g></g></g><g fill="#4f1964" fill-opacity="1"><g transform="translate(297.817549, 72.730064)"><g/></g></g><g fill="#4f1964" fill-opacity="1"><g transform="translate(301.02891, 72.730064)"><g><path d="M 1.828125 0 L 2.386719 0 L 2.386719 -4.558594 L 3.886719 -4.558594 L 3.886719 -5.089844 L 0.335938 -5.089844 L 0.335938 -4.558594 L 1.828125 -4.558594 Z M 1.828125 0 "/></g></g></g><g fill="#4f1964" fill-opacity="1"><g transform="translate(306.742005, 72.730064)"><g><path d="M 0.636719 0 L 1.191406 0 L 1.191406 -2.28125 L 3.675781 -2.28125 L 3.675781 0 L 4.230469 0 L 4.230469 -5.089844 L 3.675781 -5.089844 L 3.675781 -2.808594 L 1.191406 -2.808594 L 1.191406 -5.089844 L 0.636719 -5.089844 Z M 0.636719 0 "/></g></g></g><g fill="#4f1964" fill-opacity="1"><g transform="translate(313.10023, 72.730064)"><g><path d="M 0.617188 0 L 1.167969 0 L 1.167969 -5.089844 L 0.617188 -5.089844 Z M 0.617188 0 "/></g></g></g><g fill="#4f1964" fill-opacity="1"><g transform="translate(316.368942, 72.730064)"><g><path d="M 0.609375 0 L 1.160156 0 L 1.160156 -4.179688 L 4.085938 0 L 4.730469 0 L 4.730469 -5.089844 L 4.179688 -5.089844 L 4.179688 -0.894531 L 1.226562 -5.089844 L 0.609375 -5.089844 Z M 0.609375 0 "/></g></g></g><g fill="#4f1964" fill-opacity="1"><g transform="translate(323.200282, 72.730064)"><g><path d="M 2.59375 0.078125 C 3.621094 0.078125 4.773438 -0.457031 4.773438 -2.136719 L 4.773438 -2.609375 L 2.753906 -2.609375 L 2.753906 -2.09375 L 4.230469 -2.09375 C 4.230469 -0.851562 3.382812 -0.453125 2.59375 -0.453125 C 1.8125 -0.453125 0.882812 -0.9375 0.882812 -2.566406 C 0.882812 -4.078125 1.820312 -4.628906 2.601562 -4.628906 C 3.367188 -4.628906 3.941406 -4.105469 4.09375 -3.585938 L 4.710938 -3.585938 C 4.507812 -4.609375 3.585938 -5.160156 2.601562 -5.160156 C 1.542969 -5.160156 0.324219 -4.410156 0.324219 -2.574219 C 0.324219 -0.542969 1.578125 0.078125 2.59375 0.078125 Z M 2.59375 0.078125 "/></g></g></g><g fill="#4f1964" fill-opacity="1"><g transform="translate(329.809403, 72.730064)"><g><path d="M 2.1875 0.0664062 C 3.140625 0.0664062 3.886719 -0.421875 3.886719 -1.414062 C 3.886719 -2.453125 3.203125 -2.847656 2.222656 -2.894531 C 1.585938 -2.933594 1.054688 -3.109375 1.054688 -3.726562 C 1.054688 -4.328125 1.503906 -4.625 2.113281 -4.625 C 2.710938 -4.625 3.105469 -4.414062 3.363281 -3.886719 L 3.847656 -4.207031 C 3.492188 -4.824219 3.011719 -5.160156 2.113281 -5.160156 C 1.195312 -5.160156 0.472656 -4.601562 0.472656 -3.726562 C 0.472656 -2.839844 1.210938 -2.371094 2.136719 -2.328125 C 2.808594 -2.300781 3.296875 -2.101562 3.296875 -1.417969 C 3.296875 -0.824219 2.910156 -0.472656 2.171875 -0.472656 C 1.621094 -0.472656 1.105469 -0.765625 0.78125 -1.390625 L 0.300781 -1.097656 C 0.695312 -0.300781 1.339844 0.0664062 2.1875 0.0664062 Z M 2.1875 0.0664062 "/></g></g></g></svg>